<?xml version="1.0" standalone="no"?><!DOCTYPE svg PUBLIC "-//W3C//DTD SVG 1.1//EN" "http://www.w3.org/Graphics/SVG/1.1/DTD/svg11.dtd"><svg t="1588430346787" class="icon" viewBox="0 0 1024 1024" version="1.1" xmlns="http://www.w3.org/2000/svg" p-id="6876" xmlns:xlink="http://www.w3.org/1999/xlink" width="200" height="200"><defs><style type="text/css"></style></defs><path d="M698.624 1024H153.6C68.9024 1024 0 955.0976 0 870.4V153.6C0 68.9024 68.9024 0 153.6 0h537.6c84.6976 0 153.6 68.9024 153.6 153.6v265.728h-51.2V153.6c0-56.4608-45.9392-102.4-102.4-102.4H153.6c-56.4608 0-102.4 45.9392-102.4 102.4v716.8c0 56.4608 45.9392 102.4 102.4 102.4h545.024v51.2z" fill="#333333" p-id="6877"></path><path d="M384 243.2H153.6a25.6 25.6 0 0 1 0-51.2h230.4a25.6 25.6 0 0 1 0 51.2zM204.8 499.2h-51.2a25.6 25.6 0 0 1 0-51.2h51.2a25.6 25.6 0 0 1 0 51.2zM944.0256 753.5488a25.6 25.6 0 0 1-24.6016-32.7552c6.3744-21.9648 9.6128-44.8512 9.6128-68.0064s-3.2384-46.0416-9.6128-68.0064a25.6256 25.6256 0 0 1 49.1776-14.2848c7.7312 26.6112 11.6352 54.2848 11.6352 82.2784s-3.9168 55.6672-11.6352 82.2784a25.6 25.6 0 0 1-24.576 18.496zM698.6368 1024h-25.6c-42.3552 0-76.8-34.4448-76.8-76.8v-33.28a25.6 25.6 0 0 1 51.2 0V947.2c0 14.1184 11.4816 25.6 25.6 25.6h25.6c14.1184 0 25.6-11.4816 25.6-25.6v-33.28a25.6 25.6 0 0 1 51.2 0V947.2c0 42.3552-34.4448 76.8-76.8 76.8zM749.8368 417.28a25.6 25.6 0 0 1-25.6-25.6V358.4c0-14.1184-11.4816-25.6-25.6-25.6h-25.6c-14.1184 0-25.6 11.4816-25.6 25.6v33.28a25.6 25.6 0 0 1-51.2 0V358.4c0-42.3552 34.4448-76.8 76.8-76.8h25.6c42.3552 0 76.8 34.4448 76.8 76.8v33.28a25.6 25.6 0 0 1-25.6 25.6zM437.3888 887.8976c-6.656 0-13.3504-0.8704-19.9552-2.6368a75.9936 75.9936 0 0 1-46.6432-35.7504l-12.8-22.2976a76.0064 76.0064 0 0 1-7.7056-58.1504 76.1472 76.1472 0 0 1 35.8144-46.6688l28.7744-16.6144a25.5744 25.5744 0 1 1 25.6128 44.3136l-28.8 16.64a25.3824 25.3824 0 0 0-11.9296 15.5392 25.2544 25.2544 0 0 0 2.56 19.328l12.864 22.3872c3.3664 5.8496 8.8576 10.048 15.4624 11.8016 6.6432 1.792 13.5424 0.8448 19.4688-2.5472l28.928-16.6528a25.5872 25.5872 0 1 1 25.536 44.3648l-28.928 16.6528a76.544 76.544 0 0 1-38.2592 10.2912z" fill="#333333" p-id="6878"></path><path d="M944.0384 603.264a25.5488 25.5488 0 0 1-22.1824-12.8 25.5616 25.5616 0 0 1 9.3568-34.9568l28.8-16.64c5.9264-3.4304 10.1504-8.9216 11.9168-15.5264a25.28 25.28 0 0 0-2.56-19.3408l-12.864-22.3744a25.1136 25.1136 0 0 0-15.4496-11.8144 25.4976 25.4976 0 0 0-19.4688 2.5472l-28.9408 16.6528a25.5616 25.5616 0 0 1-34.944-9.4336 25.6 25.6 0 0 1 9.4208-34.9568l28.928-16.64a76.5184 76.5184 0 0 1 58.2016-7.6544 76.0832 76.0832 0 0 1 46.6432 35.7504l12.8128 22.2976a76.0576 76.0576 0 0 1 7.6928 58.1632A76.16 76.16 0 0 1 985.6 583.2064l-28.7744 16.6144a25.3568 25.3568 0 0 1-12.7872 3.4432zM427.6352 603.264c-4.3392 0-8.7552-1.1008-12.7872-3.4432l-28.8-16.64a76.1216 76.1216 0 0 1-35.776-46.656 76.096 76.096 0 0 1 7.7696-58.2656l12.736-22.1696a76.0576 76.0576 0 0 1 46.656-35.776 76.4032 76.4032 0 0 1 58.2016 7.6672l28.9152 16.6272a25.6 25.6 0 0 1-25.5232 44.3904l-28.928-16.64a25.3952 25.3952 0 0 0-19.4688-2.56 25.152 25.152 0 0 0-15.4624 11.8272l-12.8 22.2592a25.3056 25.3056 0 0 0-2.624 19.4304c1.7664 6.6048 5.9904 12.1088 11.8912 15.5136l28.8256 16.6656a25.5744 25.5744 0 0 1 9.3568 34.9568 25.5616 25.5616 0 0 1-22.1824 12.8128zM934.2848 887.8976a76.4544 76.4544 0 0 1-38.2464-10.2912l-28.928-16.6528a25.6 25.6 0 0 1 25.5488-44.3648l28.928 16.6528a25.4464 25.4464 0 0 0 19.4688 2.5472 25.1136 25.1136 0 0 0 15.4624-11.8272l12.7872-22.2464c3.4688-5.9904 4.3904-12.8512 2.624-19.456s-5.9904-12.096-11.8912-15.5008l-28.8256-16.6656a25.5744 25.5744 0 0 1-9.3568-34.9568 25.5488 25.5488 0 0 1 34.9568-9.3568l28.8 16.64a76.096 76.096 0 0 1 35.776 46.6432 76.1856 76.1856 0 0 1-7.744 58.2784l-12.736 22.1568a75.9936 75.9936 0 0 1-46.6688 35.776 77.696 77.696 0 0 1-19.9552 2.624zM698.6368 1024h-25.6c-42.3552 0-76.8-34.4448-76.8-76.8v-33.28a25.6 25.6 0 0 1 51.2 0V947.2c0 14.1184 11.4816 25.6 25.6 25.6h25.6c14.1184 0 25.6-11.4816 25.6-25.6v-33.28a25.6 25.6 0 0 1 51.2 0V947.2c0 42.3552-34.4448 76.8-76.8 76.8zM749.8368 417.28a25.6 25.6 0 0 1-25.6-25.6V358.4c0-14.1184-11.4816-25.6-25.6-25.6h-25.6c-14.1184 0-25.6 11.4816-25.6 25.6v33.28a25.6 25.6 0 0 1-51.2 0V358.4c0-42.3552 34.4448-76.8 76.8-76.8h25.6c42.3552 0 76.8 34.4448 76.8 76.8v33.28a25.6 25.6 0 0 1-25.6 25.6z" fill="#333333" p-id="6879"></path><path d="M879.8848 492.416a25.5104 25.5104 0 0 1-18.4832-7.8976 241.9968 241.9968 0 0 0-117.6192-67.968c-13.7344-3.3536-22.1568-17.2032-18.816-30.9376s17.2416-22.1312 30.9376-18.816a293.0304 293.0304 0 0 1 142.4768 82.304 25.6 25.6 0 0 1-18.496 43.3152z" fill="#333333" p-id="6880"></path><path d="M427.648 753.5488a25.6 25.6 0 0 1-24.576-18.4704c-7.7184-26.6112-11.6352-54.2848-11.6352-82.2784s3.9168-55.6672 11.6352-82.2784a25.6 25.6 0 0 1 49.1776 14.2848c-6.3872 21.9648-9.6128 44.8512-9.6128 68.0064s3.2256 46.0416 9.6128 68.0064a25.6256 25.6256 0 0 1-24.6016 32.7296z" fill="#333333" p-id="6881"></path><path d="M491.776 492.416a25.6 25.6 0 0 1-18.4832-43.3152 293.12 293.12 0 0 1 142.4768-82.304 25.6 25.6 0 1 1 12.1216 49.7536 241.8816 241.8816 0 0 0-117.6192 67.968c-5.0176 5.248-11.7504 7.8976-18.496 7.8976z" fill="#333333" p-id="6882"></path><path d="M749.8112 939.52a25.6 25.6 0 0 1-6.0288-50.4704 241.8816 241.8816 0 0 0 117.6192-67.9808 25.6384 25.6384 0 0 1 36.1984-0.7808c10.2016 9.7792 10.5472 25.984 0.7808 36.1984a293.2096 293.2096 0 0 1-142.4768 82.304 25.5744 25.5744 0 0 1-6.0928 0.7296z" fill="#333333" p-id="6883"></path><path d="M621.8624 939.52c-2.0096 0-4.0448-0.2432-6.0928-0.7296a293.2096 293.2096 0 0 1-142.4768-82.304 25.6 25.6 0 1 1 36.9792-35.4176 242.0992 242.0992 0 0 0 117.6192 67.9808 25.6 25.6 0 1 1-6.0288 50.4704z" fill="#333333" p-id="6884"></path><path d="M685.8368 793.6c-77.632 0-140.8-63.168-140.8-140.8s63.168-140.8 140.8-140.8 140.8 63.168 140.8 140.8-63.168 140.8-140.8 140.8z m0-230.4c-49.3952 0-89.6 40.2048-89.6 89.6s40.2048 89.6 89.6 89.6 89.6-40.2048 89.6-89.6-40.2048-89.6-89.6-89.6z" fill="#333333" p-id="6885"></path></svg>